<?xml version="1.0" encoding="UTF-8"?>
    <svg xmlns="http://www.w3.org/2000/svg" width="180" height="56" viewBox="0 0 425 133">
    <style type="text/css">
    .cls-1{fill:#fff;}
    .cls-1,.cls-2,.cls-3{fill-rule:evenodd;}
    .cls-3{fill:#f3e60f;}
    </style>
    <path id="脨聴脨掳脨禄脨赂脨虏脨潞脨掳_脩聠脨虏脨碌脩聜脨戮脨录_3"  class="cls-1" d="M35,35c-5.978,3.129-10.09,3.742-13,10-2.752,4.629-1.468,8.909,0,14,7.918,8.478,27.715,10.16,27,19-0.34,5.933-3.949,7.464-5,8-9.138,2.6-15.46-.586-23-3l-2,8,2,1c13.458,3.657,30.533,4.272,36-8,2.859-4.774,1.5-9.812,0-15-1.442-4.551-24.742-10.863-27-17,0.4-5.729,1.865-6.011,3-8,8.824-3.766,13.515-.623,21,1l2-8C49,35.514,43.008,33.524,35,35ZM76,94h7c-0.179-6.994.076-15.1,0-20,6.156-9.584,9.683-14.766,15-25H90c-3.161,6.171-5.954,11.771-9,18-0.823-.052-1.24-0.01-2,0-3-5.666-7-12.334-10-18H62v1c5.145,8.488,9.145,15.782,14,24C76.027,79.651,76.068,85.742,76,94Zm28-45q-1.5,22.5-3,45c2.794,0.112,5.143.079,8,0,0.285-8.666.715-20.334,1-29l2,4,9,24c2.3,0.073,3.6.083,6,0,3-8.666,6.1-15.384,10-24a26.776,26.776,0,0,0,2-5c0.217,9.282.633,20.668,1,30h8q-1.5-22.5-3-45h-9L125,80a5.342,5.342,0,0,0-1,0c-3.556-10.044-7.355-21-11-31h-9Zm68,0q-7.5,22.5-15,45h7c1.624-4.407,2.961-8.084,5-14h13c1.223,4.711,2.882,10.355,4,14,2.585-.035,4.3-0.038,8,0q-7.5-22.5-15-45h-7Zm30,0V94c2.371-.033,4.479.033,7,0,0.094-9.512.026-20.608,0-30,0.333,0.667,1.667,2.333,2,3,6.087,9.146,12.109,18,18,27h6V49c-2.549-.045-4.667-0.117-7,0V78c-2.127-3.061-8.1-12.4-19-29h-7Zm44,0V94h7V49h-7Zm11,7h13c-0.02,12.665.02,25.276,0,38,2.274-.039,5.137.039,8,0V56h12V49c-11.267.012-21.894-.066-33,0v7Zm38,38c2.763-.044,4.9.044,8,0,0.044-5.429,0-12.667,0-18,4.94,5.224,10.579,11.282,17,18h9a8.828,8.828,0,0,1,0-1c-4.725-4.709-11.347-12.073-16-17V74c11.851-1.988,15.249-13.347,9-21-3.852-4.347-20.022-4.067-27-4C294.965,58.173,294.368,79.533,295,94Zm47-45c-18.716,5.429-20.844,50,11,45C376.758,88.046,374.731,42.953,342,49Zm32,0V94h7c0.333-10.332-.333-20.668,0-31,0,0.632,2.156,3.78,20,31h6V49h-7c-0.333,10,.333,20,0,30,0-.593-0.657-1.333-19-30h-7Z"/>
              <path id="脨聴脨掳脨禄脨赂脨虏脨潞脨掳_脩聠脨虏脨碌脩聜脨戮脨录_脨搂脨碌脩聙脨陆脩聥脨鹿" class="cls-2" d="M101,0H235V23H425v87H235v23H101V110H0V23H101V0Zm4,3V23H232V3H105ZM35,35c-5.978,3.129-10.09,3.742-13,10-2.752,4.629-1.468,8.909,0,14,7.918,8.478,27.715,10.16,27,19-0.34,5.933-3.949,7.464-5,8-9.138,2.6-15.46-.586-23-3l-2,8,2,1c13.458,3.657,30.533,4.272,36-8,2.859-4.774,1.5-9.812,0-15-1.442-4.551-24.742-10.863-27-17,0.4-5.729,1.865-6.011,3-8,8.824-3.766,13.515-.623,21,1l2-8C49,35.514,43.008,33.524,35,35ZM76,94h7c-0.179-6.994.076-15.1,0-20,6.156-9.584,9.683-14.766,15-25H90c-3.161,6.171-5.954,11.771-9,18-0.823-.052-1.24-0.01-2,0-3-5.666-7-12.334-10-18H62v1c5.145,8.488,9.145,15.782,14,24C76.027,79.651,76.068,85.742,76,94Zm28-45q-1.5,22.5-3,45c2.794,0.112,5.143.079,8,0,0.285-8.666.715-20.334,1-29l2,4,9,24c2.3,0.073,3.6.083,6,0,3-8.666,6.1-15.384,10-24a26.776,26.776,0,0,0,2-5c0.217,9.282.633,20.668,1,30h8q-1.5-22.5-3-45h-9L125,80a5.342,5.342,0,0,0-1,0c-3.556-10.044-7.355-21-11-31h-9Zm68,0q-7.5,22.5-15,45h7c1.624-4.407,2.961-8.084,5-14h13c1.223,4.711,2.882,10.355,4,14,2.585-.035,4.3-0.038,8,0q-7.5-22.5-15-45h-7Zm30,0V94c2.371-.033,4.479.033,7,0,0.094-9.512.026-20.608,0-30,0.333,0.667,1.667,2.333,2,3,6.087,9.146,12.109,18,18,27h6V49c-2.549-.045-4.667-0.117-7,0V78c-2.127-3.061-8.1-12.4-19-29h-7Zm44,0V94h7V49h-7Zm11,7h13c-0.02,12.665.02,25.276,0,38,2.274-.039,5.137.039,8,0V56h12V49c-11.267.012-21.894-.066-33,0v7Zm38,38c2.763-.044,4.9.044,8,0,0.044-5.429,0-12.667,0-18,4.94,5.224,10.579,11.282,17,18h9a8.828,8.828,0,0,1,0-1c-4.725-4.709-11.347-12.073-16-17V74c11.851-1.988,15.249-13.347,9-21-3.852-4.347-20.022-4.067-27-4C294.965,58.173,294.368,79.533,295,94Zm47-45c-18.716,5.429-20.844,50,11,45C376.758,88.046,374.731,42.953,342,49Zm32,0V94h7c0.333-10.332-.333-20.668,0-31,0,0.632,2.156,3.78,20,31h6V49h-7c-0.333,10,.333,20,0,30,0-.593-0.657-1.333-19-30h-7ZM105,110v20H232V110H105Z"/>
              <path id="脨聴脨掳脨禄脨赂脨虏脨潞脨掳_脩聠脨虏脨碌脩聜脨戮脨录_脨搂脨碌脩聙脨陆脩聥脨鹿_2" class="cls-2" d="M175,60c0.542,0,.528-0.026,1,0,1.156,4.187,2.781,9.913,4,14h-9C172.333,69.667,173.761,64.458,175,60Z"/>
              <path id="脨聴脨掳脨禄脨赂脨虏脨潞脨掳_脩聠脨虏脨碌脩聜脨戮脨录_1" class="cls-3" d="M232,24L104,23c0.026-6.938-.026-14,0-21,42.329,0.333,85.671-.333,128,0V24Z"/>
              <path id="脨聴脨掳脨禄脨赂脨虏脨潞脨掳_脩聠脨虏脨碌脩聜脨戮脨录_2" class="cls-3" d="M232,109c-0.028,7.409-.01,14.667,0,22-42.329.01-85.515,0.021-128,0-0.027-7-.018-14.911,0-22H232Z"/>
              <path id="脨聴脨掳脨禄脨赂脨虏脨潞脨掳_脩聠脨虏脨碌脩聜脨戮脨录_5" class="cls-2" d="M347,55c11.493-3.37,21.817,22.761,6,31C333.269,95.591,329.971,57.163,347,55Z"/>
              <path id="脨聴脨掳脨禄脨赂脨虏脨潞脨掳_脩聠脨虏脨碌脩聜脨戮脨录_4" class="cls-2" d="M303,69c0.046-4.5,0-9.293,0-14h2c6.609,0,11.876.128,12,7C316.988,68.256,314.089,68.959,303,69Z"/>
    </svg>